<!--suppress CheckTagEmptyBody -->
<svg style="display: none">
<symbol xmlns="http://www.w3.org/2000/svg" id="chevrons-up"  viewBox="0 0 24 24" stroke-width="1.5"  fill="none" stroke-linecap="round" stroke-linejoin="round"> <path stroke="none" d="M0 0h24v24H0z" /> <polyline points="7 11 12 6 17 11" /> <polyline points="7 17 12 12 17 17" /> </symbol>
    <symbol xmlns="http://www.w3.org/2000/svg" id="check" viewBox="0 0 16 16">
    <path
        d="M6 14a1 1 0 0 1-.707-.293l-3-3a1 1 0 0 1 1.414-1.414l2.157 2.157 6.316-9.023a1 1 0 0 1 1.639 1.146l-7 10a1 1 0 0 1-.732.427A.863.863 0 0 1 6 14z"
    ></path>
    </symbol>
    <symbol xmlns="http://www.w3.org/2000/svg" id="cap" viewBox="0 0 16 16">
    <path
        fill-rule="evenodd"
        d="M7.693 1.066a.75.75 0 01.614 0l7.25 3.25a.75.75 0 010 1.368L13 6.831v2.794c0 1.024-.81 1.749-1.66 2.173-.893.447-2.075.702-3.34.702-.278 0-.55-.012-.816-.036a.75.75 0 01.133-1.494c.22.02.45.03.683.03 1.082 0 2.025-.221 2.67-.543.69-.345.83-.682.83-.832V7.503L8.307 8.934a.75.75 0 01-.614 0L4 7.28v1.663c.296.105.575.275.812.512.438.438.688 1.059.688 1.796v3a.75.75 0 01-.75.75h-3a.75.75 0 01-.75-.75v-3c0-.737.25-1.358.688-1.796.237-.237.516-.407.812-.512V6.606L.443 5.684a.75.75 0 010-1.368l7.25-3.25zM2.583 5L8 7.428 13.416 5 8 2.572 2.583 5zM2.5 11.25c0-.388.125-.611.25-.735a.704.704 0 01.5-.203c.19 0 .37.071.5.203.125.124.25.347.25.735v2.25H2.5v-2.25z"
    ></path>
    </symbol>
    <symbol
    xmlns="http://www.w3.org/2000/svg"
    id="briefcase"
    viewBox="0 0 16 16"
    >
    <path
        fill-rule="evenodd"
        d="M6.75 0A1.75 1.75 0 005 1.75V3H1.75A1.75 1.75 0 000 4.75v8.5C0 14.216.784 15 1.75 15h12.5A1.75 1.75 0 0016 13.25v-8.5A1.75 1.75 0 0014.25 3H11V1.75A1.75 1.75 0 009.25 0h-2.5zM9.5 3V1.75a.25.25 0 00-.25-.25h-2.5a.25.25 0 00-.25.25V3h3zM5 4.5H1.75a.25.25 0 00-.25.25V6a2 2 0 002 2h9a2 2 0 002-2V4.75a.25.25 0 00-.25-.25H5zm-1.5 5a3.484 3.484 0 01-2-.627v4.377c0 .138.112.25.25.25h12.5a.25.25 0 00.25-.25V8.873a3.484 3.484 0 01-2 .627h-9z"
    ></path>
    </symbol>


    <symbol
    xmlns="http://www.w3.org/2000/svg"
    id="building"
    viewBox="0 0 16 16"
    >
    <path
        fill-rule="evenodd"
        d="M1.5 14.25c0 .138.112.25.25.25H4v-1.25a.75.75 0 01.75-.75h2.5a.75.75 0 01.75.75v1.25h2.25a.25.25 0 00.25-.25V1.75a.25.25 0 00-.25-.25h-8.5a.25.25 0 00-.25.25v12.5zM1.75 16A1.75 1.75 0 010 14.25V1.75C0 .784.784 0 1.75 0h8.5C11.216 0 12 .784 12 1.75v12.5c0 .085-.006.168-.018.25h2.268a.25.25 0 00.25-.25V8.285a.25.25 0 00-.111-.208l-1.055-.703a.75.75 0 11.832-1.248l1.055.703c.487.325.779.871.779 1.456v5.965A1.75 1.75 0 0114.25 16h-3.5a.75.75 0 01-.197-.026c-.099.017-.2.026-.303.026h-3a.75.75 0 01-.75-.75V14h-1v1.25a.75.75 0 01-.75.75h-3zM3 3.75A.75.75 0 013.75 3h.5a.75.75 0 010 1.5h-.5A.75.75 0 013 3.75zM3.75 6a.75.75 0 000 1.5h.5a.75.75 0 000-1.5h-.5zM3 9.75A.75.75 0 013.75 9h.5a.75.75 0 010 1.5h-.5A.75.75 0 013 9.75zM7.75 9a.75.75 0 000 1.5h.5a.75.75 0 000-1.5h-.5zM7 6.75A.75.75 0 017.75 6h.5a.75.75 0 010 1.5h-.5A.75.75 0 017 6.75zM7.75 3a.75.75 0 000 1.5h.5a.75.75 0 000-1.5h-.5z"
    ></path>
    </symbol>
    <symbol xmlns="http://www.w3.org/2000/svg" id="home" viewBox="0 0 24 24">
    <path
        d="M12.97 2.59a1.5 1.5 0 00-1.94 0l-7.5 6.363A1.5 1.5 0 003 10.097V19.5A1.5 1.5 0 004.5 21h4.75a.75.75 0 00.75-.75V14h4v6.25c0 .414.336.75.75.75h4.75a1.5 1.5 0 001.5-1.5v-9.403a1.5 1.5 0 00-.53-1.144l-7.5-6.363z"
    ></path>
    </symbol>

    <symbol xmlns="http://www.w3.org/2000/svg" id="cross" viewBox="0 0 16 16">
    <path
        d="M9.061 8l3.47-3.47a.75.75 0 0 0-1.061-1.06L8 6.939 4.53 3.47a.75.75 0 1 0-1.06 1.06L6.939 8 3.47 11.47a.75.75 0 1 0 1.06 1.06L8 9.061l3.47 3.47a.75.75 0 0 0 1.06-1.061z"
    ></path>
    </symbol>
    <symbol xmlns="http://www.w3.org/2000/svg" id="bin" viewBox="0 0 16 16">
    <path
        d="M6.5 12a.5.5 0 0 0 .5-.5v-6a.5.5 0 0 0-1 0v6a.5.5 0 0 0 .5.5zm2 0a.5.5 0 0 0 .5-.5v-6a.5.5 0 0 0-1 0v6a.5.5 0 0 0 .5.5zm2 0a.5.5 0 0 0 .5-.5v-6a.5.5 0 0 0-1 0v6a.5.5 0 0 0 .5.5z"
    ></path>
    <path
        d="M14 2h-3.05a2.5 2.5 0 0 0-4.9 0H3a1 1 0 0 0 0 2v9a3 3 0 0 0 3 3h5a3 3 0 0 0 3-3V4a1 1 0 0 0 0-2zM8.5 1a1.489 1.489 0 0 1 1.391 1H7.109A1.489 1.489 0 0 1 8.5 1zM12 13a1 1 0 0 1-1 1H6a1 1 0 0 1-1-1V4h7z"
    ></path>
    </symbol>
    <symbol
    xmlns="http://www.w3.org/2000/svg"
    id="form-check"
    viewBox="0 0 16 16"
    >
    <path
        fill-rule="evenodd"
        d="M2.5 1.75a.25.25 0 01.25-.25h8.5a.25.25 0 01.25.25v7.736a.75.75 0 101.5 0V1.75A1.75 1.75 0 0011.25 0h-8.5A1.75 1.75 0 001 1.75v11.5c0 .966.784 1.75 1.75 1.75h3.17a.75.75 0 000-1.5H2.75a.25.25 0 01-.25-.25V1.75zM4.75 4a.75.75 0 000 1.5h4.5a.75.75 0 000-1.5h-4.5zM4 7.75A.75.75 0 014.75 7h2a.75.75 0 010 1.5h-2A.75.75 0 014 7.75zm11.774 3.537a.75.75 0 00-1.048-1.074L10.7 14.145 9.281 12.72a.75.75 0 00-1.062 1.058l1.943 1.95a.75.75 0 001.055.008l4.557-4.45z"
    ></path>
    </symbol>
    <symbol xmlns="http://www.w3.org/2000/svg" id="help" viewBox="0 0 16 16">
    <path
        d="M8 1a7 7 0 1 0 7 7 7.008 7.008 0 0 0-7-7zm0 13a6 6 0 1 1 6-6 6.007 6.007 0 0 1-6 6zM8 3.125A2.7 2.7 0 0 0 5.125 6a.875.875 0 0 0 1.75 0c0-1 .6-1.125 1.125-1.125a1.105 1.105 0 0 1 1.13.744.894.894 0 0 1-.53 1.016A2.738 2.738 0 0 0 7.125 9v.337a.875.875 0 0 0 1.75 0v-.37a1.041 1.041 0 0 1 .609-.824A2.637 2.637 0 0 0 10.82 5.16 2.838 2.838 0 0 0 8 3.125zm0 7.625A1.25 1.25 0 1 0 9.25 12 1.25 1.25 0 0 0 8 10.75z"
    ></path>
    </symbol>
    <symbol xmlns="http://www.w3.org/2000/svg" id="key" viewBox="0 0 16 16">
    <path
        d="M12 4a4 4 0 0 0-3.86 3H1a1 1 0 0 0 0 2v1a1 1 0 0 0 2 0V9h1v1a1 1 0 0 0 2 0V9h2.14A4 4 0 1 0 12 4zm0 6a2 2 0 1 1 2-2 2 2 0 0 1-2 2z"
    ></path>
    </symbol>
    <symbol xmlns="http://www.w3.org/2000/svg" id="lock" viewBox="0 0 24 24">
    <path
        d="M18.75 9.977H18V7A6 6 0 0 0 6 7v2.977h-.75A2.25 2.25 0 0 0 3 12.227v7.523A2.25 2.25 0 0 0 5.25 22h13.5A2.25 2.25 0 0 0 21 19.75v-7.523a2.25 2.25 0 0 0-2.25-2.25zM9 7a3 3 0 0 1 6 0v2.977H9z"
    ></path>
    </symbol>


    <symbol
    xmlns="http://www.w3.org/2000/svg"
    id="warning"
    viewBox="0 0 16 16"
    >
    <path
        d="M14.742 12.106L9.789 2.2a2 2 0 0 0-3.578 0l-4.953 9.91A2 2 0 0 0 3.047 15h9.905a2 2 0 0 0 1.79-2.894zM7 5a1 1 0 0 1 2 0v4a1 1 0 0 1-2 0zm1 8.25A1.25 1.25 0 1 1 9.25 12 1.25 1.25 0 0 1 8 13.25z"
    ></path>
    </symbol>
    <symbol xmlns="http://www.w3.org/2000/svg" id="sync" viewBox="0 0 16 16">
    <path
        d="M14 1a1 1 0 0 0-1 1v1.146A6.948 6.948 0 0 0 1.227 6.307a1 1 0 1 0 1.94.484A4.983 4.983 0 0 1 8 3a4.919 4.919 0 0 1 3.967 2H10a1 1 0 0 0 0 2h4a1 1 0 0 0 1-1V2a1 1 0 0 0-1-1zm.046 7.481a1 1 0 0 0-1.213.728A4.983 4.983 0 0 1 8 13a4.919 4.919 0 0 1-3.967-2H6a1 1 0 0 0 0-2H2a1 1 0 0 0-1 1v4a1 1 0 0 0 2 0v-1.146a6.948 6.948 0 0 0 11.773-3.161 1 1 0 0 0-.727-1.212z"
    ></path>
    </symbol>
    <symbol xmlns="http://www.w3.org/2000/svg" id="web" viewBox="0 0 16 16">
    <path
        d="M8 0a8 8 0 1 0 8 8 8.009 8.009 0 0 0-8-8zm5.163 4.958h-1.552a7.7 7.7 0 0 0-1.051-2.376 6.03 6.03 0 0 1 2.603 2.376zM14 8a5.963 5.963 0 0 1-.335 1.958h-1.821A12.327 12.327 0 0 0 12 8a12.327 12.327 0 0 0-.156-1.958h1.821A5.963 5.963 0 0 1 14 8zm-6 6c-1.075 0-2.037-1.2-2.567-2.958h5.135C10.037 12.8 9.075 14 8 14zM5.174 9.958a11.084 11.084 0 0 1 0-3.916h5.651A11.114 11.114 0 0 1 11 8a11.114 11.114 0 0 1-.174 1.958zM2 8a5.963 5.963 0 0 1 .335-1.958h1.821a12.361 12.361 0 0 0 0 3.916H2.335A5.963 5.963 0 0 1 2 8zm6-6c1.075 0 2.037 1.2 2.567 2.958H5.433C5.963 3.2 6.925 2 8 2zm-2.56.582a7.7 7.7 0 0 0-1.051 2.376H2.837A6.03 6.03 0 0 1 5.44 2.582zm-2.6 8.46h1.549a7.7 7.7 0 0 0 1.051 2.376 6.03 6.03 0 0 1-2.603-2.376zm7.723 2.376a7.7 7.7 0 0 0 1.051-2.376h1.552a6.03 6.03 0 0 1-2.606 2.376z"
    ></path>
    </symbol>
    <symbol
    xmlns="http://www.w3.org/2000/svg"
    id="external-link-old"
    viewBox="0 0 16 16"
    >
    <path
        d="M5 1H4a3 3 0 0 0-3 3v8a3 3 0 0 0 3 3h8a3 3 0 0 0 3-3v-1a1 1 0 0 0-2 0v1a1 1 0 0 1-1 1H4a1 1 0 0 1-1-1V4a1 1 0 0 1 1-1h1a1 1 0 1 0 0-2z"
    ></path>
    <path
        d="M14.935 1.618A1 1 0 0 0 14.012 1h-5a1 1 0 1 0 0 2h2.586L8.305 6.293A1 1 0 1 0 9.72 7.707l3.293-3.293V7a1 1 0 1 0 2 0V2a1 1 0 0 0-.077-.382z"
    ></path>
    </symbol>
    <symbol
    xmlns="http://www.w3.org/2000/svg"
    id="chevron-right"
    viewBox="0 0 16 16"
    >
    <path
        d="M6 14a1 1 0 0 1-.707-1.707L9.586 8 5.293 3.707a1 1 0 0 1 1.414-1.414l5 5a1 1 0 0 1 0 1.414l-5 5A1 1 0 0 1 6 14z"
    ></path>
    </symbol>
    <symbol
    xmlns="http://www.w3.org/2000/svg"
    id="chevron-left"
    viewBox="0 0 16 16"
    >
    <path
        d="M6.414 8l4.293-4.293a1 1 0 0 0-1.414-1.414l-5 5a1 1 0 0 0 0 1.414l5 5a1 1 0 0 0 1.414-1.414z"
    ></path>
    </symbol>
    <symbol xmlns="http://www.w3.org/2000/svg" id="star" viewBox="0 0 16 16">
    <path
        d="M15.845 6.064A1.1 1.1 0 0 0 15 5.331L10.911 4.6 8.985.735a1.1 1.1 0 0 0-1.969 0L5.089 4.6l-4.081.729a1.1 1.1 0 0 0-.615 1.834L3.32 10.31l-.609 4.36a1.1 1.1 0 0 0 1.6 1.127L8 13.873l3.69 1.927a1.1 1.1 0 0 0 1.6-1.127l-.61-4.363 2.926-3.146a1.1 1.1 0 0 0 .239-1.1z"
    ></path>
    </symbol>
    <symbol xmlns="http://www.w3.org/2000/svg" id="info" viewBox="0 0 16 16">
    <path
        d="M8 16a8 8 0 1 1 8-8 8.009 8.009 0 0 1-8 8zM8 2a6 6 0 1 0 6 6 6.006 6.006 0 0 0-6-6z"
    ></path>
    <path d="M8 7a1 1 0 0 0-1 1v3a1 1 0 0 0 2 0V8a1 1 0 0 0-1-1z"></path>
    <circle cx="8" cy="5" r="1.188"></circle>
    </symbol>
    <symbol xmlns="http://www.w3.org/2000/svg" id="heart" viewBox="0 0 16 16">
    <path d="M8 6s0-4 3.5-4S15 5 15 6c0 4.5-7 9-7 9z"></path>
    <path d="M8 6s0-4-3.5-4S1 5 1 6c0 4.5 7 9 7 9l1-6z"></path>
    </symbol>

    <symbol xmlns="http://www.w3.org/2000/svg" id="external-link"  viewBox="0 0 24 24"><path d="M15.5 2.25a.75.75 0 01.75-.75h5.5a.75.75 0 01.75.75v5.5a.75.75 0 01-1.5 0V4.06l-6.22 6.22a.75.75 0 11-1.06-1.06L19.94 3h-3.69a.75.75 0 01-.75-.75z"></path><path d="M2.5 4.25c0-.966.784-1.75 1.75-1.75h8.5a.75.75 0 010 1.5h-8.5a.25.25 0 00-.25.25v15.5c0 .138.112.25.25.25h15.5a.25.25 0 00.25-.25v-8.5a.75.75 0 011.5 0v8.5a1.75 1.75 0 01-1.75 1.75H4.25a1.75 1.75 0 01-1.75-1.75V4.25z"></path></symbol>
</svg>