<?xml version="1.0" encoding="UTF-8"?>
<svg display="none" xmlns="http://www.w3.org/2000/svg">
<!-- new -->
<symbol id="add" xmlns="http://www.w3.org/2000/svg" viewBox="0 0 24 24"><path fill-rule="evenodd" d="M11.75 4.5a.75.75 0 01.75.75V11h5.75a.75.75 0 010 1.5H12.5v5.75a.75.75 0 01-1.5 0V12.5H5.25a.75.75 0 010-1.5H11V5.25a.75.75 0 01.75-.75z"></path></symbol>
<symbol id="user" xmlns="http://www.w3.org/2000/svg" viewBox="0 0 24 24"><path fill-rule="evenodd" d="M12 2.5a5.5 5.5 0 00-3.096 10.047 9.005 9.005 0 00-5.9 8.18.75.75 0 001.5.045 7.5 7.5 0 0114.993 0 .75.75 0 101.499-.044 9.005 9.005 0 00-5.9-8.181A5.5 5.5 0 0012 2.5zM8 8a4 4 0 118 0 4 4 0 01-8 0z"></path></symbol>
<symbol id="users" xmlns="http://www.w3.org/2000/svg" viewBox="0 0 24 24"><path fill-rule="evenodd" d="M3.5 8a5.5 5.5 0 118.596 4.547 9.005 9.005 0 015.9 8.18.75.75 0 01-1.5.045 7.5 7.5 0 00-14.993 0 .75.75 0 01-1.499-.044 9.005 9.005 0 015.9-8.181A5.494 5.494 0 013.5 8zM9 4a4 4 0 100 8 4 4 0 000-8z"></path><path d="M17.29 8c-.148 0-.292.01-.434.03a.75.75 0 11-.212-1.484 4.53 4.53 0 013.38 8.097 6.69 6.69 0 013.956 6.107.75.75 0 01-1.5 0 5.193 5.193 0 00-3.696-4.972l-.534-.16v-1.676l.41-.209A3.03 3.03 0 0017.29 8z"></path></symbol>
<symbol id="mail" xmlns="http://www.w3.org/2000/svg" viewBox="0 0 24 24"><path fill-rule="evenodd" d="M1.75 3A1.75 1.75 0 000 4.75v14c0 .966.784 1.75 1.75 1.75h20.5A1.75 1.75 0 0024 18.75v-14A1.75 1.75 0 0022.25 3H1.75zM1.5 4.75a.25.25 0 01.25-.25h20.5a.25.25 0 01.25.25v.852l-10.36 7a.25.25 0 01-.28 0l-10.36-7V4.75zm0 2.662V18.75c0 .138.112.25.25.25h20.5a.25.25 0 00.25-.25V7.412l-9.52 6.433c-.592.4-1.368.4-1.96 0L1.5 7.412z"></path></symbol>
<!-- main -->
<symbol id="terminal" xmlns="http://www.w3.org/2000/svg" viewBox="0 0 24 24"><path d="M9.25 12a.75.75 0 01-.22.53l-2.75 2.75a.75.75 0 01-1.06-1.06L7.44 12 5.22 9.78a.75.75 0 111.06-1.06l2.75 2.75c.141.14.22.331.22.53zm2 2a.75.75 0 000 1.5h5a.75.75 0 000-1.5h-5z"></path><path fill-rule="evenodd" d="M0 4.75C0 3.784.784 3 1.75 3h20.5c.966 0 1.75.784 1.75 1.75v14.5A1.75 1.75 0 0122.25 21H1.75A1.75 1.75 0 010 19.25V4.75zm1.75-.25a.25.25 0 00-.25.25v14.5c0 .138.112.25.25.25h20.5a.25.25 0 00.25-.25V4.75a.25.25 0 00-.25-.25H1.75z"></path></symbol>
<symbol id="notice" viewBox="0 0 24 24" xmlns="http://www.w3.org/2000/svg"><path fill-rule="evenodd" d="M0 4.75C0 3.784.784 3 1.75 3h20.5c.966 0 1.75.784 1.75 1.75v14.5A1.75 1.75 0 0122.25 21H1.75A1.75 1.75 0 010 19.25V4.75zm1.75-.25a.25.25 0 00-.25.25v14.5c0 .138.112.25.25.25h20.5a.25.25 0 00.25-.25V4.75a.25.25 0 00-.25-.25H1.75z"></path><path fill-rule="evenodd" d="M5 8.75A.75.75 0 015.75 8h11.5a.75.75 0 010 1.5H5.75A.75.75 0 015 8.75zm0 4a.75.75 0 01.75-.75h5.5a.75.75 0 010 1.5h-5.5a.75.75 0 01-.75-.75z"></path></symbol>
<symbol id="moon" viewBox="0 0 24 24" xmlns="http://www.w3.org/2000/svg">
<path fill-rule="evenodd" d="M16.5 6c0 5.799-4.701 10.5-10.5 10.5-.426 0-.847-.026-1.26-.075A8.5 8.5 0 1016.425 4.74c.05.413.075.833.075 1.259zm-1.732-2.04A9.08 9.08 0 0114.999 6a9 9 0 01-11.04 8.768l-.004-.002a9.367 9.367 0 01-.78-.218c-.393-.13-.8.21-.67.602a9.938 9.938 0 00.329.855l.004.01A10.002 10.002 0 0012 22a10.002 10.002 0 004.015-19.16l-.01-.005a9.745 9.745 0 00-.855-.328c-.392-.13-.732.276-.602.67a8.934 8.934 0 01.218.779l.002.005z"></path>
</symbol>
<symbol id="external-link" viewBox="0 0 24 24" xmlns="http://www.w3.org/2000/svg">
<path d="M15.5 2.25a.75.75 0 01.75-.75h5.5a.75.75 0 01.75.75v5.5a.75.75 0 01-1.5 0V4.06l-6.22 6.22a.75.75 0 11-1.06-1.06L19.94 3h-3.69a.75.75 0 01-.75-.75z"/>
<path d="M2.5 4.25c0-.966.784-1.75 1.75-1.75h8.5a.75.75 0 010 1.5h-8.5a.25.25 0 00-.25.25v15.5c0 .138.112.25.25.25h15.5a.25.25 0 00.25-.25v-8.5a.75.75 0 011.5 0v8.5a1.75 1.75 0 01-1.75 1.75H4.25a1.75 1.75 0 01-1.75-1.75V4.25z"/>
</symbol>
<symbol id="home" viewBox="0 0 24 24" xmlns="http://www.w3.org/2000/svg">
<path d="M11.03 2.59a1.5 1.5 0 011.94 0l7.5 6.363a1.5 1.5 0 01.53 1.144V19.5a1.5 1.5 0 01-1.5 1.5h-5.75a.75.75 0 01-.75-.75V14h-2v6.25a.75.75 0 01-.75.75H4.5A1.5 1.5 0 013 19.5v-9.403c0-.44.194-.859.53-1.144l7.5-6.363zM12 3.734l-7.5 6.363V19.5h5v-6.25a.75.75 0 01.75-.75h3.5a.75.75 0 01.75.75v6.25h5v-9.403L12 3.734z" fill-rule="evenodd"/>
</symbol>
<symbol id="organization" viewBox="0 0 24 24" xmlns="http://www.w3.org/2000/svg">
<path d="M7.25 12a.75.75 0 000 1.5h.5a.75.75 0 000-1.5h-.5zM6.5 9.25a.75.75 0 01.75-.75h.5a.75.75 0 010 1.5h-.5a.75.75 0 01-.75-.75zM7.25 5a.75.75 0 000 1.5h.5a.75.75 0 000-1.5h-.5zM10 12.75a.75.75 0 01.75-.75h.5a.75.75 0 010 1.5h-.5a.75.75 0 01-.75-.75zm.75-4.25a.75.75 0 000 1.5h.5a.75.75 0 000-1.5h-.5zM10 5.75a.75.75 0 01.75-.75h.5a.75.75 0 010 1.5h-.5a.75.75 0 01-.75-.75zM14.25 12a.75.75 0 000 1.5h.5a.75.75 0 000-1.5h-.5zm-.75-2.75a.75.75 0 01.75-.75h.5a.75.75 0 010 1.5h-.5a.75.75 0 01-.75-.75zM14.25 5a.75.75 0 000 1.5h.5a.75.75 0 000-1.5h-.5z"/>
<path d="M3 20a2 2 0 002 2h3.75a.75.75 0 00.75-.75V19h3v2.25c0 .414.336.75.75.75H17c.092 0 .183-.006.272-.018a.758.758 0 00.166.018H21.5a2 2 0 002-2v-7.625a2 2 0 00-.8-1.6l-1-.75a.75.75 0 10-.9 1.2l1 .75a.5.5 0 01.2.4V20a.5.5 0 01-.5.5h-2.563c.041-.16.063-.327.063-.5V3a2 2 0 00-2-2H5a2 2 0 00-2 2v17zm2 .5a.5.5 0 01-.5-.5V3a.5.5 0 01.5-.5h12a.5.5 0 01.5.5v17a.5.5 0 01-.5.5h-3v-2.25a.75.75 0 00-.75-.75h-4.5a.75.75 0 00-.75.75v2.25H5z" fill-rule="evenodd"/>
</symbol>
<symbol id="mortar-board" viewBox="0 0 24 24" xmlns="http://www.w3.org/2000/svg">
<path d="M12.292 2.06a.75.75 0 00-.584 0L.458 6.81a.75.75 0 000 1.38L4.25 9.793v3.803a2.901 2.901 0 00-1.327.757c-.579.58-.923 1.41-.923 2.43v4.5c0 .248.128.486.335.624.06.04.117.073.22.124.124.062.297.138.52.213.448.149 1.09.288 1.925.288s1.477-.14 1.925-.288c.223-.075.396-.15.52-.213a2.11 2.11 0 00.21-.117A.762.762 0 008 21.28v-4.5c0-1.018-.344-1.85-.923-2.428a2.9 2.9 0 00-1.327-.758v-3.17l5.958 2.516a.75.75 0 00.584 0l5.208-2.2v4.003a2.552 2.552 0 01-.079.085 4.057 4.057 0 01-.849.65c-.826.488-2.255 1.021-4.572 1.021-.612 0-1.162-.037-1.654-.1a.75.75 0 00-.192 1.487c.56.072 1.173.113 1.846.113 2.558 0 4.254-.592 5.334-1.23.538-.316.914-.64 1.163-.896a2.84 2.84 0 00.392-.482h.001A.75.75 0 0019 15v-4.892l4.542-1.917a.75.75 0 000-1.382l-11.25-4.75zM5 15c-.377 0-.745.141-1.017.413-.265.265-.483.7-.483 1.368v4.022c.299.105.797.228 1.5.228s1.201-.123 1.5-.228V16.78c0-.669-.218-1.103-.483-1.368A1.431 1.431 0 005 15zm7-3.564L2.678 7.5 12 3.564 21.322 7.5 12 11.436z" fill-rule="evenodd"/>
</symbol>
<symbol id="briefcase" viewBox="0 0 24 24" xmlns="http://www.w3.org/2000/svg">
<path d="M7.5 1.75C7.5.784 8.284 0 9.25 0h5.5c.966 0 1.75.784 1.75 1.75V4h4.75c.966 0 1.75.784 1.75 1.75v14.5A1.75 1.75 0 0121.25 22H2.75A1.75 1.75 0 011 20.25V5.75C1 4.784 1.784 4 2.75 4H7.5V1.75zm-5 10.24v8.26c0 .138.112.25.25.25h18.5a.25.25 0 00.25-.25v-8.26A4.233 4.233 0 0118.75 13H5.25a4.233 4.233 0 01-2.75-1.01zm19-3.24a2.75 2.75 0 01-2.75 2.75H5.25A2.75 2.75 0 012.5 8.75v-3a.25.25 0 01.25-.25h18.5a.25.25 0 01.25.25v3zm-6.5-7V4H9V1.75a.25.25 0 01.25-.25h5.5a.25.25 0 01.25.25z" fill-rule="evenodd"/>
</symbol>
<symbol id="info" viewBox="0 0 24 24" xmlns="http://www.w3.org/2000/svg">
<path d="M13 7.5a1 1 0 11-2 0 1 1 0 012 0zm-3 3.75a.75.75 0 01.75-.75h1.5a.75.75 0 01.75.75v4.25h.75a.75.75 0 010 1.5h-3a.75.75 0 010-1.5h.75V12h-.75a.75.75 0 01-.75-.75z"/>
<path d="M12 1C5.925 1 1 5.925 1 12s4.925 11 11 11 11-4.925 11-11S18.075 1 12 1zM2.5 12a9.5 9.5 0 1119 0 9.5 9.5 0 01-19 0z" fill-rule="evenodd"/>
</symbol>
<symbol id="sync" viewBox="0 0 24 24" xmlns="http://www.w3.org/2000/svg">
<path d="M3.38 8A9.502 9.502 0 0112 2.5a9.502 9.502 0 019.215 7.182.75.75 0 101.456-.364C21.473 4.539 17.15 1 12 1a10.995 10.995 0 00-9.5 5.452V4.75a.75.75 0 00-1.5 0V8.5a1 1 0 001 1h3.75a.75.75 0 000-1.5H3.38zm-.595 6.318a.75.75 0 00-1.455.364C2.527 19.461 6.85 23 12 23c4.052 0 7.592-2.191 9.5-5.451v1.701a.75.75 0 001.5 0V15.5a1 1 0 00-1-1h-3.75a.75.75 0 000 1.5h2.37A9.502 9.502 0 0112 21.5c-4.446 0-8.181-3.055-9.215-7.182z"/>
</symbol>
<symbol id="chevron-up" viewBox="0 0 24 24" xmlns="http://www.w3.org/2000/svg">
<path fill-rule="evenodd" d="M18.78 15.28a.75.75 0 000-1.06l-6.25-6.25a.75.75 0 00-1.06 0l-6.25 6.25a.75.75 0 101.06 1.06L12 9.56l5.72 5.72a.75.75 0 001.06 0z"></path>
</symbol>
<symbol id="chevron-right" viewBox="0 0 24 24" xmlns="http://www.w3.org/2000/svg">
<path d="M8.72 18.78a.75.75 0 001.06 0l6.25-6.25a.75.75 0 000-1.06L9.78 5.22a.75.75 0 00-1.06 1.06L14.44 12l-5.72 5.72a.75.75 0 000 1.06z" fill-rule="evenodd"/>
</symbol>
<symbol id="chevron-left" viewBox="0 0 24 24" xmlns="http://www.w3.org/2000/svg">
<path d="M15.28 5.22a.75.75 0 00-1.06 0l-6.25 6.25a.75.75 0 000 1.06l6.25 6.25a.75.75 0 101.06-1.06L9.56 12l5.72-5.72a.75.75 0 000-1.06z" fill-rule="evenodd"/>
</symbol>
<symbol id="star" viewBox="0 0 24 24" xmlns="http://www.w3.org/2000/svg">
<path d="M12 .25a.75.75 0 01.673.418l3.058 6.197 6.839.994a.75.75 0 01.415 1.279l-4.948 4.823 1.168 6.811a.75.75 0 01-1.088.791L12 18.347l-6.117 3.216a.75.75 0 01-1.088-.79l1.168-6.812-4.948-4.823a.75.75 0 01.416-1.28l6.838-.993L11.328.668A.75.75 0 0112 .25zm0 2.445L9.44 7.882a.75.75 0 01-.565.41l-5.725.832 4.143 4.038a.75.75 0 01.215.664l-.978 5.702 5.121-2.692a.75.75 0 01.698 0l5.12 2.692-.977-5.702a.75.75 0 01.215-.664l4.143-4.038-5.725-.831a.75.75 0 01-.565-.41L12 2.694z" fill-rule="evenodd"/>
</symbol>
<symbol id="lock" viewBox="0 0 24 24" xmlns="http://www.w3.org/2000/svg">
<path d="M6 9V7.25C6 3.845 8.503 1 12 1s6 2.845 6 6.25V9h.5a2.5 2.5 0 012.5 2.5v8a2.5 2.5 0 01-2.5 2.5h-13A2.5 2.5 0 013 19.5v-8A2.5 2.5 0 015.5 9H6zm1.5-1.75C7.5 4.58 9.422 2.5 12 2.5c2.578 0 4.5 2.08 4.5 4.75V9h-9V7.25zm-3 4.25a1 1 0 011-1h13a1 1 0 011 1v8a1 1 0 01-1 1h-13a1 1 0 01-1-1v-8z" fill-rule="evenodd"/>
</symbol>
<symbol id="key" viewBox="0 0 24 24" xmlns="http://www.w3.org/2000/svg">
<path d="M16.75 8.5a1.25 1.25 0 100-2.5 1.25 1.25 0 000 2.5z"/>
<path d="M15.75 0a8.25 8.25 0 00-7.851 10.79L.513 18.178A1.75 1.75 0 000 19.414v2.836C0 23.217.784 24 1.75 24h1.5A1.75 1.75 0 005 22.25v-1a.25.25 0 01.25-.25h2.735a.75.75 0 00.545-.22l.214-.213A.875.875 0 009 19.948V18.5a.25.25 0 01.25-.25h1.086c.464 0 .91-.184 1.237-.513l1.636-1.636A8.25 8.25 0 1015.75 0zM9 8.25a6.75 6.75 0 114.288 6.287.75.75 0 00-.804.168l-1.971 1.972a.25.25 0 01-.177.073H9.25A1.75 1.75 0 007.5 18.5v1H5.25a1.75 1.75 0 00-1.75 1.75v1a.25.25 0 01-.25.25h-1.5a.25.25 0 01-.25-.25v-2.836a.25.25 0 01.073-.177l7.722-7.721a.75.75 0 00.168-.804A6.73 6.73 0 019 8.25z" fill-rule="evenodd"/>
</symbol>
<symbol id="help" viewBox="0 0 24 24" xmlns="http://www.w3.org/2000/svg">
<path d="M10.97 8.265a1.45 1.45 0 00-.487.57.75.75 0 01-1.341-.67c.2-.402.513-.826.997-1.148C10.627 6.69 11.244 6.5 12 6.5c.658 0 1.369.195 1.934.619a2.45 2.45 0 011.004 2.006c0 1.033-.513 1.72-1.027 2.215-.19.183-.399.358-.579.508l-.147.123a4.329 4.329 0 00-.435.409v1.37a.75.75 0 11-1.5 0v-1.473c0-.237.067-.504.247-.736.22-.28.486-.517.718-.714l.183-.153.001-.001c.172-.143.324-.27.47-.412.368-.355.569-.676.569-1.136a.953.953 0 00-.404-.806C12.766 8.118 12.384 8 12 8c-.494 0-.814.121-1.03.265zM13 17a1 1 0 11-2 0 1 1 0 012 0z"/>
<path d="M12 1C5.925 1 1 5.925 1 12s4.925 11 11 11 11-4.925 11-11S18.075 1 12 1zM2.5 12a9.5 9.5 0 1119 0 9.5 9.5 0 01-19 0z" fill-rule="evenodd"/>
</symbol>
<symbol id="check" viewBox="0 0 24 24" xmlns="http://www.w3.org/2000/svg">
<path d="M17.28 9.28a.75.75 0 00-1.06-1.06l-5.97 5.97-2.47-2.47a.75.75 0 00-1.06 1.06l3 3a.75.75 0 001.06 0l6.5-6.5z"/>
<path d="M12 1C5.925 1 1 5.925 1 12s4.925 11 11 11 11-4.925 11-11S18.075 1 12 1zM2.5 12a9.5 9.5 0 1119 0 9.5 9.5 0 01-19 0z" fill-rule="evenodd"/>
</symbol>
<symbol id="warning" viewBox="0 0 24 24" xmlns="http://www.w3.org/2000/svg">
<path d="M13 17.5a1 1 0 11-2 0 1 1 0 012 0zm-.25-8.25a.75.75 0 00-1.5 0v4.5a.75.75 0 001.5 0v-4.5z"/>
<path d="M9.836 3.244c.963-1.665 3.365-1.665 4.328 0l8.967 15.504c.963 1.667-.24 3.752-2.165 3.752H3.034c-1.926 0-3.128-2.085-2.165-3.752L9.836 3.244zm3.03.751a1 1 0 00-1.732 0L2.168 19.499A1 1 0 003.034 21h17.932a1 1 0 00.866-1.5L12.866 3.994z" fill-rule="evenodd"/>
</symbol>
<symbol id="web" viewBox="0 0 24 24" xmlns="http://www.w3.org/2000/svg">
<path fill-rule="evenodd" d="M12 1C5.925 1 1 5.925 1 12s4.925 11 11 11 11-4.925 11-11S18.075 1 12 1zM2.513 11.5h4.745c.1-3.037 1.1-5.49 2.093-7.204.39-.672.78-1.233 1.119-1.673C6.11 3.329 2.746 7 2.513 11.5zm4.77 1.5H2.552a9.505 9.505 0 007.918 8.377 15.698 15.698 0 01-1.119-1.673C8.413 18.085 7.47 15.807 7.283 13zm1.504 0h6.426c-.183 2.48-1.02 4.5-1.862 5.951-.476.82-.95 1.455-1.304 1.88L12 20.89l-.047-.057a13.888 13.888 0 01-1.304-1.88C9.807 17.5 8.969 15.478 8.787 13zm6.454-1.5H8.759c.1-2.708.992-4.904 1.89-6.451.476-.82.95-1.455 1.304-1.88L12 3.11l.047.057c.353.426.828 1.06 1.304 1.88.898 1.548 1.79 3.744 1.89 6.452zm1.476 1.5c-.186 2.807-1.13 5.085-2.068 6.704-.39.672-.78 1.233-1.118 1.673A9.505 9.505 0 0021.447 13h-4.731zm4.77-1.5h-4.745c-.1-3.037-1.1-5.49-2.093-7.204-.39-.672-.78-1.233-1.119-1.673 4.36.706 7.724 4.377 7.957 8.877z"/>
</symbol>
<symbol id="heart" viewBox="0 0 24 24" xmlns="http://www.w3.org/2000/svg">
<path fill-rule="evenodd" d="M6.736 4C4.657 4 2.5 5.88 2.5 8.514c0 3.107 2.324 5.96 4.861 8.12a29.66 29.66 0 004.566 3.175l.073.041.073-.04c.271-.153.661-.38 1.13-.674.94-.588 2.19-1.441 3.436-2.502 2.537-2.16 4.861-5.013 4.861-8.12C21.5 5.88 19.343 4 17.264 4c-2.106 0-3.801 1.389-4.553 3.643a.75.75 0 01-1.422 0C10.537 5.389 8.841 4 6.736 4zM12 20.703l.343.667a.75.75 0 01-.686 0l.343-.667zM1 8.513C1 5.053 3.829 2.5 6.736 2.5 9.03 2.5 10.881 3.726 12 5.605 13.12 3.726 14.97 2.5 17.264 2.5 20.17 2.5 23 5.052 23 8.514c0 3.818-2.801 7.06-5.389 9.262a31.146 31.146 0 01-5.233 3.576l-.025.013-.007.003-.002.001-.344-.666-.343.667-.003-.002-.007-.003-.025-.013A29.308 29.308 0 0110 20.408a31.147 31.147 0 01-3.611-2.632C3.8 15.573 1 12.332 1 8.514z"/>
</symbol>
<symbol id="bin" viewBox="0 0 24 24" xmlns="http://www.w3.org/2000/svg">
<path fill-rule="evenodd" d="M16 1.75V3h5.25a.75.75 0 010 1.5H2.75a.75.75 0 010-1.5H8V1.75C8 .784 8.784 0 9.75 0h4.5C15.216 0 16 .784 16 1.75zm-6.5 0a.25.25 0 01.25-.25h4.5a.25.25 0 01.25.25V3h-5V1.75z"/><path d="M4.997 6.178a.75.75 0 10-1.493.144L4.916 20.92a1.75 1.75 0 001.742 1.58h10.684a1.75 1.75 0 001.742-1.581l1.413-14.597a.75.75 0 00-1.494-.144l-1.412 14.596a.25.25 0 01-.249.226H6.658a.25.25 0 01-.249-.226L4.997 6.178z"/><path d="M9.206 7.501a.75.75 0 01.793.705l.5 8.5A.75.75 0 119 16.794l-.5-8.5a.75.75 0 01.705-.793zm6.293.793A.75.75 0 1014 8.206l-.5 8.5a.75.75 0 001.498.088l.5-8.5z"/>
</symbol>
<symbol id="form-check" viewBox="0 0 24 24" xmlns="http://www.w3.org/2000/svg">
<path d="M3.5 3.75a.25.25 0 01.25-.25h13.5a.25.25 0 01.25.25v10a.75.75 0 001.5 0v-10A1.75 1.75 0 0017.25 2H3.75A1.75 1.75 0 002 3.75v16.5c0 .966.784 1.75 1.75 1.75h7a.75.75 0 000-1.5h-7a.25.25 0 01-.25-.25V3.75z"/><path d="M6.25 7a.75.75 0 000 1.5h8.5a.75.75 0 000-1.5h-8.5zm-.75 4.75a.75.75 0 01.75-.75h4.5a.75.75 0 010 1.5h-4.5a.75.75 0 01-.75-.75zm16.28 4.53a.75.75 0 10-1.06-1.06l-4.97 4.97-1.97-1.97a.75.75 0 10-1.06 1.06l2.5 2.5a.75.75 0 001.06 0l5.5-5.5z"/>
</symbol>
<symbol id="cross" viewBox="0 0 24 24" xmlns="http://www.w3.org/2000/svg">
<path d="M9.036 7.976a.75.75 0 00-1.06 1.06L10.939 12l-2.963 2.963a.75.75 0 101.06 1.06L12 13.06l2.963 2.964a.75.75 0 001.061-1.06L13.061 12l2.963-2.964a.75.75 0 10-1.06-1.06L12 10.939 9.036 7.976z"/><path fill-rule="evenodd" d="M12 1C5.925 1 1 5.925 1 12s4.925 11 11 11 11-4.925 11-11S18.075 1 12 1zM2.5 12a9.5 9.5 0 1119 0 9.5 9.5 0 01-19 0z"/>
</symbol>
<symbol id="plus" viewBox="0 0 16 16" xmlns="http://www.w3.org/2000/svg">
<path d="M14 1H2a1 1 0 0 0-1 1v12a1 1 0 0 0 1 1h12a1 1 0 0 0 1-1V2a1 1 0 0 0-1-1zm-1 12H3V3h10z"/>
<path fill="context-fill" d="M5 9h2v2a1 1 0 0 0 2 0V9h2a1 1 0 0 0 0-2H9V5a1 1 0 0 0-2 0v2H5a1 1 0 0 0 0 2z"/>
</symbol>
<symbol id="menu" viewBox="0 0 16 16" xmlns="http://www.w3.org/2000/svg">
<path d="M3 4h10a1 1 0 0 0 0-2H3a1 1 0 0 0 0 2zm10 3H3a1 1 0 0 0 0 2h10a1 1 0 0 0 0-2zm0 5H3a1 1 0 0 0 0 2h10a1 1 0 0 0 0-2z"/>
</symbol>
<symbol id="gear" viewBox="0 0 24 24" xmlns="http://www.w3.org/2000/svg">
<path fill-rule="evenodd" d="M16 12a4 4 0 11-8 0 4 4 0 018 0zm-1.5 0a2.5 2.5 0 11-5 0 2.5 2.5 0 015 0z"/><path fill-rule="evenodd" d="M12 1c-.268 0-.534.01-.797.028-.763.055-1.345.617-1.512 1.304l-.352 1.45c-.02.078-.09.172-.225.22a8.45 8.45 0 00-.728.303c-.13.06-.246.044-.315.002l-1.274-.776c-.604-.368-1.412-.354-1.99.147-.403.348-.78.726-1.129 1.128-.5.579-.515 1.387-.147 1.99l.776 1.275c.042.069.059.185-.002.315-.112.237-.213.48-.302.728-.05.135-.143.206-.221.225l-1.45.352c-.687.167-1.249.749-1.304 1.512a11.149 11.149 0 000 1.594c.055.763.617 1.345 1.304 1.512l1.45.352c.078.02.172.09.22.225.09.248.191.491.303.729.06.129.044.245.002.314l-.776 1.274c-.368.604-.354 1.412.147 1.99.348.403.726.78 1.128 1.129.579.5 1.387.515 1.99.147l1.275-.776c.069-.042.185-.059.315.002.237.112.48.213.728.302.135.05.206.143.225.221l.352 1.45c.167.687.749 1.249 1.512 1.303a11.125 11.125 0 001.594 0c.763-.054 1.345-.616 1.512-1.303l.352-1.45c.02-.078.09-.172.225-.22.248-.09.491-.191.729-.303.129-.06.245-.044.314-.002l1.274.776c.604.368 1.412.354 1.99-.147.403-.348.78-.726 1.129-1.128.5-.579.515-1.387.147-1.99l-.776-1.275c-.042-.069-.059-.185.002-.315.112-.237.213-.48.302-.728.05-.135.143-.206.221-.225l1.45-.352c.687-.167 1.249-.749 1.303-1.512a11.125 11.125 0 000-1.594c-.054-.763-.616-1.345-1.303-1.512l-1.45-.352c-.078-.02-.172-.09-.22-.225a8.469 8.469 0 00-.303-.728c-.06-.13-.044-.246-.002-.315l.776-1.274c.368-.604.354-1.412-.147-1.99-.348-.403-.726-.78-1.128-1.129-.579-.5-1.387-.515-1.99-.147l-1.275.776c-.069.042-.185.059-.315-.002a8.465 8.465 0 00-.728-.302c-.135-.05-.206-.143-.225-.221l-.352-1.45c-.167-.687-.749-1.249-1.512-1.304A11.149 11.149 0 0012 1zm-.69 1.525a9.648 9.648 0 011.38 0c.055.004.135.05.162.16l.351 1.45c.153.628.626 1.08 1.173 1.278.205.074.405.157.6.249a1.832 1.832 0 001.733-.074l1.275-.776c.097-.06.186-.036.228 0 .348.302.674.628.976.976.036.042.06.13 0 .228l-.776 1.274a1.832 1.832 0 00-.074 1.734c.092.195.175.395.248.6.198.547.652 1.02 1.278 1.172l1.45.353c.111.026.157.106.161.161a9.653 9.653 0 010 1.38c-.004.055-.05.135-.16.162l-1.45.351a1.833 1.833 0 00-1.278 1.173 6.926 6.926 0 01-.25.6 1.832 1.832 0 00.075 1.733l.776 1.275c.06.097.036.186 0 .228a9.555 9.555 0 01-.976.976c-.042.036-.13.06-.228 0l-1.275-.776a1.832 1.832 0 00-1.733-.074 6.926 6.926 0 01-.6.248 1.833 1.833 0 00-1.172 1.278l-.353 1.45c-.026.111-.106.157-.161.161a9.653 9.653 0 01-1.38 0c-.055-.004-.135-.05-.162-.16l-.351-1.45a1.833 1.833 0 00-1.173-1.278 6.928 6.928 0 01-.6-.25 1.832 1.832 0 00-1.734.075l-1.274.776c-.097.06-.186.036-.228 0a9.56 9.56 0 01-.976-.976c-.036-.042-.06-.13 0-.228l.776-1.275a1.832 1.832 0 00.074-1.733 6.948 6.948 0 01-.249-.6 1.833 1.833 0 00-1.277-1.172l-1.45-.353c-.111-.026-.157-.106-.161-.161a9.648 9.648 0 010-1.38c.004-.055.05-.135.16-.162l1.45-.351a1.833 1.833 0 001.278-1.173 6.95 6.95 0 01.249-.6 1.832 1.832 0 00-.074-1.734l-.776-1.274c-.06-.097-.036-.186 0-.228.302-.348.628-.674.976-.976.042-.036.13-.06.228 0l1.274.776a1.832 1.832 0 001.734.074 6.95 6.95 0 01.6-.249 1.833 1.833 0 001.172-1.277l.353-1.45c.026-.111.106-.157.161-.161z"/>
</symbol>
<symbol id="external-discuss" viewBox="0 0 24 24" xmlns="http://www.w3.org/2000/svg">
<path d="M16.5 2.25a.75.75 0 01.75-.75h5.5a.75.75 0 01.75.75v5.5a.75.75 0 01-1.5 0V4.06l-6.22 6.22a.75.75 0 11-1.06-1.06L20.94 3h-3.69a.75.75 0 01-.75-.75z"/><path d="M3.25 4a.25.25 0 00-.25.25v12.5c0 .138.112.25.25.25h2.5a.75.75 0 01.75.75v3.19l3.72-3.72a.75.75 0 01.53-.22h10a.25.25 0 00.25-.25v-6a.75.75 0 011.5 0v6a1.75 1.75 0 01-1.75 1.75h-9.69l-3.573 3.573A1.457 1.457 0 015 21.043V18.5H3.25a1.75 1.75 0 01-1.75-1.75V4.25c0-.966.784-1.75 1.75-1.75h11a.75.75 0 010 1.5h-11z"/>
</symbol>
<symbol id="image" viewBox="0 0 24 24" xmlns="http://www.w3.org/2000/svg"><path fill-rule="evenodd" d="M19.25 4.5H4.75a.25.25 0 00-.25.25v14.5c0 .138.112.25.25.25h.19l9.823-9.823a1.75 1.75 0 012.475 0l2.262 2.262V4.75a.25.25 0 00-.25-.25zm.25 9.56l-3.323-3.323a.25.25 0 00-.354 0L7.061 19.5H19.25a.25.25 0 00.25-.25v-5.19zM4.75 3A1.75 1.75 0 003 4.75v14.5c0 .966.784 1.75 1.75 1.75h14.5A1.75 1.75 0 0021 19.25V4.75A1.75 1.75 0 0019.25 3H4.75zM8.5 9.5a1 1 0 100-2 1 1 0 000 2zm0 1.5a2.5 2.5 0 100-5 2.5 2.5 0 000 5z"></path></symbol>


<!-- brands -->
<symbol xmlns="http://www.w3.org/2000/svg" id="airplane" enable-background="new 0 0 24 24" viewBox="0 0 24 24">
<path d="m8.75 17.612v4.638c0 .324.208.611.516.713.077.025.156.037.234.037.234 0 .46-.11.604-.306l2.713-3.692z"/>
<path d="m23.685.139c-.23-.163-.532-.185-.782-.054l-22.5 11.75c-.266.139-.423.423-.401.722.023.3.222.556.505.653l6.255 2.138 13.321-11.39-10.308 12.419 10.483 3.583c.078.026.16.04.242.04.136 0 .271-.037.39-.109.19-.116.319-.311.352-.53l2.75-18.5c.041-.28-.077-.558-.307-.722z"/>
</symbol>
<symbol xmlns="http://www.w3.org/2000/svg" id="firefox" viewBox="0 0 32 32"><path d="M31.359,14.615h0c-.044-.289-.088-.459-.088-.459s-.113.131-.3.378A10.77,10.77,0,0,0,30.6,12.5a13.846,13.846,0,0,0-.937-2.411,10.048,10.048,0,0,0-.856-1.468q-.176-.263-.359-.51c-.57-.931-1.224-1.5-1.981-2.576a7.806,7.806,0,0,1-.991-2.685A10.844,10.844,0,0,0,25,4.607c-.777-.784-1.453-1.341-1.861-1.721C21.126,1.006,21.36.031,21.36.031h0S17.6,4.228,19.229,8.6a8.4,8.4,0,0,0,2.8,3.733c1.576,1.3,3.273,2.323,4.168,4.937a8.377,8.377,0,0,0-3.144-3.317,7.573,7.573,0,0,1,.6,3,7.124,7.124,0,0,1-8.711,6.94,6.561,6.561,0,0,1-1.765-.6,7.183,7.183,0,0,1-2.115-1.955l-.01-.017.126.046a6.5,6.5,0,0,0,.9.241,5.628,5.628,0,0,0,3.583-.423c1.126-.625,1.808-1.088,2.361-.905l.01,0c.54.172.966-.352.58-.9a2.94,2.94,0,0,0-2.848-1.112c-1.127.164-2.16.965-3.637.189a3.129,3.129,0,0,1-.277-.163c-.1-.057.317.087.22.022a7.33,7.33,0,0,1-.928-.554c-.022-.018.223.07.2.052a3.581,3.581,0,0,1-.968-.979,1.741,1.741,0,0,1-.066-1.554,1.371,1.371,0,0,1,.6-.564c.191.094.309.165.309.165s-.087-.16-.134-.244c.017-.006.032,0,.049-.011.167.072.537.26.732.375a1.016,1.016,0,0,1,.335.3s.067-.033.017-.173a.9.9,0,0,0-.346-.424l.016,0a2.94,2.94,0,0,1,.426.265,2.079,2.079,0,0,0,.17-.9,1.178,1.178,0,0,0-.069-.5c-.053-.1.03-.14.123-.035a.976.976,0,0,0-.079-.238v-.008h0s.053-.069.077-.094a1.43,1.43,0,0,1,.216-.176,9.973,9.973,0,0,1,1.465-.747c.414-.181.757-.319.827-.359a2.3,2.3,0,0,0,.293-.225,1.968,1.968,0,0,0,.66-1.14,1.6,1.6,0,0,0,.017-.178v-.05l0-.03v0l0-.012v0l0-.013h0c-.06-.225-.448-.394-2.476-.584a1.773,1.773,0,0,1-1.45-1.36l0,.009c-.029.074-.055.149-.081.225.026-.075.052-.15.081-.225l0-.016a5.138,5.138,0,0,1,1.986-2.466c.052-.042-.208.011-.156-.032a5.156,5.156,0,0,1,.53-.224c.091-.038-.39-.222-.815-.177a2.2,2.2,0,0,0-.756.178c.1-.086.4-.2.329-.2a4.865,4.865,0,0,0-1.542.583.314.314,0,0,1,.03-.14,2.4,2.4,0,0,0-.964.744,1.275,1.275,0,0,0,.01-.174,2.876,2.876,0,0,0-.473.444l-.009.007a6.285,6.285,0,0,0-3.517-.3l-.01-.009.012,0a2.943,2.943,0,0,1-.625-.7L6.1,5.852,6.081,5.83c-.077-.114-.156-.243-.237-.387-.058-.1-.117-.217-.176-.338,0-.008-.009-.011-.013-.012-.024,0-.041.111-.061.082l0-.006a4.308,4.308,0,0,1-.283-1.687l-.016.008a1.884,1.884,0,0,0-.714.934c-.061.137-.1.212-.14.287,0,.006,0-.01,0-.035.009-.069.039-.211.032-.2s-.012.019-.019.029a1.733,1.733,0,0,0-.251.372,2.355,2.355,0,0,0-.15.382c-.006.021,0-.018,0-.064s.009-.128,0-.111l-.022.043a9.5,9.5,0,0,0-.8,3.035A3.022,3.022,0,0,0,3.2,8.7v.016a6.628,6.628,0,0,0-.817,1.1,15.606,15.606,0,0,0-1.727,4.23,10.351,10.351,0,0,1,.925-1.621,15,15,0,0,0-1.045,5.5,14.233,14.233,0,0,1,.45-1.629A13.807,13.807,0,0,0,2.234,22.76a15.037,15.037,0,0,0,5.951,6.748h0a13.016,13.016,0,0,0,3.468,1.662c.162.059.326.117.494.173-.053-.021-.1-.044-.153-.067a15.7,15.7,0,0,0,4.5.662c5.394,0,7.175-2.054,7.339-2.259h0a2.73,2.73,0,0,0,.637-.856h0q.156-.064.315-.137l.067-.03.121-.057a11.312,11.312,0,0,0,2.277-1.426,5.5,5.5,0,0,0,2.123-3.1h0a1.938,1.938,0,0,0,.029-1.428q.083-.131.171-.28a12.706,12.706,0,0,0,1.907-6.181v-.006c0-.059,0-.118,0-.177A7.731,7.731,0,0,0,31.359,14.615Z"/></symbol>
<symbol xmlns="http://www.w3.org/2000/svg" id="github" viewBox="0 0 16 16">
<path fill-rule="evenodd" d="M8 0C3.58 0 0 3.58 0 8c0 3.54 2.29 6.53 5.47 7.59.4.07.55-.17.55-.38 0-.19-.01-.82-.01-1.49-2.01.37-2.53-.49-2.69-.94-.09-.23-.48-.94-.82-1.13-.28-.15-.68-.52-.01-.53.63-.01 1.08.58 1.23.82.72 1.21 1.87.87 2.33.66.07-.52.28-.87.51-1.07-1.78-.2-3.64-.89-3.64-3.95 0-.87.31-1.59.82-2.15-.08-.2-.36-1.02.08-2.12 0 0 .67-.21 2.2.82.64-.18 1.32-.27 2-.27.68 0 1.36.09 2 .27 1.53-1.04 2.2-.82 2.2-.82.44 1.1.16 1.92.08 2.12.51.56.82 1.27.82 2.15 0 3.07-1.87 3.75-3.65 3.95.29.25.54.73.54 1.48 0 1.07-.01 1.93-.01 2.2 0 .21.15.46.55.38A8.013 8.013 0 0016 8c0-4.42-3.58-8-8-8z"/>
</symbol>
<symbol id="facebook" viewBox="0 0 24 24" xmlns="http://www.w3.org/2000/svg"><path d="M24 12.073c0-6.627-5.373-12-12-12s-12 5.373-12 12c0 5.99 4.388 10.954 10.125 11.854v-8.385H7.078v-3.47h3.047V9.43c0-3.007 1.792-4.669 4.533-4.669 1.312 0 2.686.235 2.686.235v2.953H15.83c-1.491 0-1.956.925-1.956 1.874v2.25h3.328l-.532 3.47h-2.796v8.385C19.612 23.027 24 18.062 24 12.073z"/></symbol>
<symbol id="typescript" viewBox="0 0 24 24" xmlns="http://www.w3.org/2000/svg"><path d="M1.125 0C.502 0 0 .502 0 1.125v21.75C0 23.498.502 24 1.125 24h21.75c.623 0 1.125-.502 1.125-1.125V1.125C24 .502 23.498 0 22.875 0zm17.363 9.75c.612 0 1.154.037 1.627.111a6.38 6.38 0 0 1 1.306.34v2.458a3.95 3.95 0 0 0-.643-.361 5.093 5.093 0 0 0-.717-.26 5.453 5.453 0 0 0-1.426-.2c-.3 0-.573.028-.819.086a2.1 2.1 0 0 0-.623.242c-.17.104-.3.229-.393.374a.888.888 0 0 0-.14.49c0 .196.053.373.156.529.104.156.252.304.443.444s.423.276.696.41c.273.135.582.274.926.416.47.197.892.407 1.266.628.374.222.695.473.963.753.268.279.472.598.614.957.142.359.214.776.214 1.253 0 .657-.125 1.21-.373 1.656a3.033 3.033 0 0 1-1.012 1.085 4.38 4.38 0 0 1-1.487.596c-.566.12-1.163.18-1.79.18a9.916 9.916 0 0 1-1.84-.164 5.544 5.544 0 0 1-1.512-.493v-2.63a5.033 5.033 0 0 0 3.237 1.2c.333 0 .624-.03.872-.09.249-.06.456-.144.623-.25.166-.108.29-.234.373-.38a1.023 1.023 0 0 0-.074-1.089 2.12 2.12 0 0 0-.537-.5 5.597 5.597 0 0 0-.807-.444 27.72 27.72 0 0 0-1.007-.436c-.918-.383-1.602-.852-2.053-1.405-.45-.553-.676-1.222-.676-2.005 0-.614.123-1.141.369-1.582.246-.441.58-.804 1.004-1.089a4.494 4.494 0 0 1 1.47-.629 7.536 7.536 0 0 1 1.77-.201zm-15.113.188h9.563v2.166H9.506v9.646H6.789v-9.646H3.375z"/></symbol>
</svg>
